<svg xmlns="http://www.w3.org/2000/svg" width="500" height="500"><path d="M497.606 248.807c0 136.537-110.686 247.222-247.223 247.222S3.16 385.343 3.16 248.806C3.16 112.27 113.846 1.584 250.383 1.584S497.606 112.27 497.606 248.807z" fill="#BC002D" stroke="#ff0" stroke-width="1.3824" stroke-linecap="round" stroke-linejoin="round" stroke-dashoffset="1.5"/><path d="M276.66 445.66c-14.25-.99-28.637-5.008-45.953-12.84-22.03-9.963-47.038-26.533-67.712-44.865-5.823-5.164-16-15.04-16-15.527 0-.268-.46-5.47-1.022-11.56-1.84-19.933-2.99-27.418-4.756-30.938-2.198-4.38-7.657-9.544-12.27-11.603-3.135-1.4-8.76-7.503-15.11-16.4-3.887-5.443-6.423-9.668-9.22-15.36-4.934-10.043-6.982-16.26-7.946-24.122-.54-4.408-.773-17.574-.392-22.117.424-5.05.955-6.566 3.887-11.105.818-1.267 1.81-2.995 2.207-3.84.673-1.438.718-1.74.697-4.736-.013-1.76-.274-5.33-.58-7.936-3.752-31.813-.61-56.546 9.906-77.968 2.64-5.38 3.882-7.538 7.35-12.783 4.89-7.4 9.954-13.563 16.62-20.233 20.162-20.174 46.785-33.517 87.048-43.625 26.4-6.627 47.427-8.03 66.94-4.462 7.71 1.41 15.562 3.713 23.41 6.87 17.06 6.863 28.873 14.375 38.927 24.754 6.937 7.16 12 14.442 18.242 26.232 3.53 6.668 5.914 9.8 9.446 12.41 1.288.953 3.054 2.46 3.924 3.348 3.164 3.236 6.374 8.83 8.198 14.29 2.19 6.556 4.55 17.375 5.105 23.423.67 7.287.804 8.335 1.414 11.008.353 1.55 1.112 4.3 1.687 6.115 2.955 9.322 3.172 15.61.848 24.605-.824 3.187-2.817 8.167-6.046 15.104l-3.338 7.167 1.96 8.96c3.697 16.896 4.847 27.29 4.87 44.032.018 11.947-.434 16.52-2.415 24.447-1.643 6.576-3.343 10.735-9.31 22.77-2.335 4.71-4.316 8.94-4.403 9.403-.204 1.09.572 2.434 3.112 5.39 2.525 2.94 2.86 3.836 2.463 6.587-.823 5.68-4.42 17.58-7.476 24.728-12.255 28.656-33.513 51.247-58.62 62.294-9.27 4.078-19.783 6.852-29.695 7.834-3.902.386-12.15.513-16 .246z"/><path d="M289.203 439.765c7.073-.57 13.717-2.03 22.528-4.96 8.524-2.83 13.785-5.35 20.353-9.743 21.428-14.335 37.537-35.876 46.367-62.004 1.797-5.318 2.53-8.49 2.526-10.955-.003-3.4-1.04-5.054-5.497-8.78-1.27-1.062-2.466-2.07-2.658-2.245-.288-.26-.014-.757 1.583-2.866 4.358-5.755 7.99-12.08 11.27-19.632 5.652-13.004 7.332-21.66 7.335-37.777.003-18.194-2.568-35.28-7.676-51.01l-1.56-4.804 2.836-5.342c3.29-6.197 4.588-9.235 5.627-13.184 1.12-4.26 1.372-6.568 1.21-11.122-.203-5.648-1.045-9.063-3.54-14.353-3.036-6.44-5.894-9.42-9.955-10.376-2.157-.508-6.798-.51-10.65-.006-2.54.333-19.837 3.388-19.977 3.528-.026.026 1.337 2.294 3.028 5.04 7.96 12.918 11.635 22.72 17.855 47.615 4.695 18.79 6.996 29.498 8.006 37.25.465 3.57.46 22.98-.01 27.007-.943 8.128-3.176 15.334-7.218 23.294-9.458 18.628-26.737 31.882-50.55 38.777-16.512 4.78-37.892 5.723-58.3 2.57-11.264-1.74-24.035-5.86-35.66-11.5-7.826-3.796-13.716-7.378-20.217-12.295-8.778-6.638-18.316-16.09-26.72-26.474-14.388-17.78-28.18-40.554-30.887-51.003-1.28-4.938-1.44-7.862-.528-9.66 2.768-5.463 31.348-29.35 57.366-47.945 29.7-21.227 51.158-32 80.77-40.552 14.608-4.22 27.948-7.026 40.063-8.43 10.93-1.266 27.282-1.883 38.272-1.445 11.13.444 13.65.91 20.382 3.76 2.188.928 4.04 1.622 4.12 1.544.455-.456-2.832-9.09-5.57-14.624-2.17-4.39-4.55-7.7-6.862-9.544-3.657-2.92-5.667-5.716-9.425-13.113-1.394-2.746-3.28-6.18-4.19-7.63-6.598-10.514-18.033-22.678-26.87-28.584-3.135-2.094-6.173-3.545-7.48-3.572-1.926-.038-1.626.58 1.954 4.034 2.822 2.724 3.78 4.01 2.992 4.01-.382 0-3.846-2.576-6.56-4.875-11.48-9.733-25.49-15.594-43.076-18.024-6.392-.883-10.126-.154-11.727 2.29-.363.554-.36.69.04 1.53.24.508 1.876 2.445 3.635 4.304 4.115 4.352 7.437 8.06 7.76 8.665.19.354.167.476-.087.476-.44 0-4.88-2.566-9.872-5.706-10.637-6.69-21.357-10.677-28.71-10.677-5.318 0-18.26 3.437-18.863 5.01-.11.285.044.597.45.917.814.64 7.19 3.813 11.376 5.66 8.145 3.592 15.166 8.304 16.51 11.077.514 1.066.533 1.23.183 1.58-.527.525-1.407.227-5.82-1.976-8.707-4.346-18.764-7.534-26.71-8.466-3.81-.446-12.613-.172-16.368.51-9.773 1.778-19.085 5.367-29.666 11.437-10.372 5.948-15.198 11.225-13.417 14.668.875 1.693 4.41 4.15 12.56 8.732 6.58 3.7 9.645 5.692 10.766 7.002 2.084 2.435.285 2.37-5.367-.196-7.768-3.526-13.282-5.176-20.113-6.02-2.727-.338-8.783-.34-11.143-.004-5.968.85-11.292 3.353-14.433 6.79-2.426 2.654-3.215 4.89-3.58 10.146-.268 3.852-.564 4.518-2.607 5.86l-3.316 2.176c-5.093 3.34-10.744 10.962-13.175 17.77-2.236 6.264-3.112 14.39-2.87 26.625.222 11.256.93 17.07 3.624 29.824 2.348 11.12 2.76 13.786 2.654 17.157-.08 2.57-.163 2.97-.913 4.48-.453.913-1.708 2.753-2.79 4.09-3.927 4.858-6.418 9.4-5.475 9.984.445.275.95.01 3.01-1.566 3.624-2.776 5.88-1.92 12.49 4.732 8.02 8.074 13.475 17.02 16.956 27.81 2.653 8.224 3.924 17.112 3.525 24.66-.284 5.368-.734 6.287-4.57 9.322l-2.51 1.987 5.198.074c7.46.107 9.725-.4 11.105-2.486.907-1.37 1.265-2.7 1.764-6.56.236-1.823.483-3.478.548-3.677.075-.228 4.144 3.638 11.055 10.506 10.917 10.847 14.07 13.84 19.384 18.393 19.313 16.55 39.125 27.322 62.847 34.173 7.21 2.082 12.804 3.096 21.12 3.826 13.08 1.15 25.763 1.372 32.384.57 12.357-1.498 25.668-5.697 41.46-13.077 7.22-3.374 13.512-6.933 20.023-11.324 3.824-2.578 3.854-2.526.598 1.04-9.586 10.494-27.975 21.752-45.196 27.668-9.124 3.134-20.7 5.47-32.627 6.578-4.357.406-17.752.406-22.144 0-13.984-1.29-25.67-4.023-38.144-8.918-6.313-2.476-13.655-6.2-21.306-10.81-3.762-2.265-6.945-4.12-7.073-4.12-.32 0-5.52 3.79-7.02 5.12-1.73 1.53-3.467 4.074-4.18 6.12-.895 2.577-1.25 6.437-.89 9.647.916 8.145 4.877 14.868 14.598 24.78 7.883 8.04 16.512 15.098 27.884 22.808 10.257 6.954 16.384 10.21 23.587 12.54 12.595 4.073 25.398 5.55 38.783 4.472zm-2.31-3.32c-2.655-.348-4.767-.998-7.435-2.29-7.564-3.66-12.555-9.785-14.738-18.08-.52-1.974-.6-2.87-.596-6.756.003-3.758.095-4.84.566-6.71 2.35-9.32 8.09-16.107 16.53-19.547 6.275-2.56 12.9-2.757 19.1-.572 2.706.954 3.685 1.443 6.29 3.136 8.684 5.644 13.848 15.002 13.358 24.205-.517 9.705-7.117 20.014-15.486 24.192-4.267 2.13-11.846 3.173-17.59 2.422zm10.913-2.28c4.837-1.07 8.327-2.978 11.392-6.227 2.11-2.238 3.455-4.453 4.386-7.227.62-1.845.688-2.414.69-5.76.003-3.537-.034-3.808-.79-5.787-3.515-9.187-12.874-14.557-22.765-13.06-12.982 1.963-20.257 12.98-16.334 24.736 3.263 9.774 13.4 15.54 23.42 13.325zm-4.38-81.68c8.242-.493 15.82-1.698 24.96-3.97 5.513-1.367 17.406-4.988 17.786-5.413.35-.392 7.655-22.414 8.846-26.667 2.587-9.24 4.773-19.135 6.632-30.015 3.235-18.936 3.348-22.023 1.697-46.574-1.64-24.384-2.3-28.577-4.71-29.89-1-.545-3.465-.527-9.3.07-22.42 2.29-51.48 9.133-96.854 22.81-18.43 5.557-21.14 6.596-23.556 9.036-1.778 1.795-3.82 5.81-4.783 9.4-1.656 6.183-.47 13.844 4.387 28.383 3.368 10.078 7.978 21.514 13.83 34.304 4.057 8.87 11.827 24.25 13.644 27.007 4.232 6.423 7.096 7.74 21.08 9.7 7.38 1.034 12.24 1.575 16.23 1.806 4.95.287 5.52.288 10.113.012zm.046-19.96c-.468-.293-.804-.673-.747-.843.17-.51 2.76-1.18 4.632-1.195.964-.01 3.196.228 4.96.526 3.116.526 3.25.53 4.9.09 2.917-.772 6.842-2.43 10.092-4.266 1.718-.97 4.38-2.393 5.915-3.16 4.47-2.24 4.866-1.856 1.488 1.433-1.88 1.832-2.69 2.408-4.928 3.512-3.034 1.497-6.256 2.622-10.208 3.566-2.41.575-3.4.66-8.982.76-6.022.11-6.306.092-7.123-.422zm-13.26-9.203c-.968-.16-2.4-.868-2.4-1.19 0-.074.426-.313.947-.53.692-.29 2.497-.455 6.73-.614 7.805-.293 10.005-.79 14.21-3.205 4.666-2.682 5.63-3.017 6.864-2.386.895.458 2.48 2.083 2.48 2.543 0 .242-.41.598-.96.837-2.7 1.17-16.343 3.903-22.556 4.52-2.88.285-3.707.29-5.316.025zm33.442-5.715c.005-.72 1.607-3.05 2.498-3.63.947-.618 4.172-1.426 5.69-1.426 1.414 0 4.696-.79 6.53-1.573.985-.42 1.964-.834 2.175-.92.26-.103.22.034-.127.428-.81.923-4.73 3.44-6.273 4.03-1.452.556-10.13 3.412-10.364 3.412-.073 0-.13-.144-.13-.32zm-23.583-20.792c-1.682-.62-3.016-1.64-3.604-2.76-.482-.917-.587-1.59-.67-4.288-.062-2.094-.008-3.112.156-2.944.138.14.597 1.09 1.02 2.107.67 1.61 2.025 3.807 4.288 6.948.934 1.297.57 1.584-1.19.937zm15.645-3.122c-1.197-.197-3.414-.383-4.927-.414-1.513-.032-2.752-.15-2.752-.26-.003-.53 1.37-1.473 2.703-1.86 1.647-.48 3.604-.372 5.177.285 1.055.44 1.677.95 2.403 1.97.595.835.714.822-2.605.278zm8.448-.74c0-.48 1.136-2.155 3.2-4.722 2.613-3.247 3.114-4.08 3.335-5.54.338-2.23-1.607-7.178-4.194-10.67-1.543-2.084-1.764-2.652-1.237-3.18.348-.346.512-.328 1.557.178 1.647.797 3.33 2.793 4.64 5.5 1.493 3.086 2.442 6.413 2.614 9.168.133 2.126.1 2.322-.652 3.848-.894 1.816-2.8 4.193-2.357 2.94.726-2.057-1.31-1.935-3.323.2-1.538 1.63-3.584 2.932-3.584 2.28zm.12-32.78c-1.654-1.806-2.952-4.907-3.953-9.446-.535-2.428-.688-5.504-.274-5.504.385 0 1.51 2.08 3.098 5.732 1.854 4.263 2.8 7.262 2.8 8.873 0 1.578-.455 1.672-1.67.344zm-66.296-2.112c-.386-.166-.512-.465-.512-1.217v-.996l-1.536.022c-.846.01-2.483.07-3.64.127-1.285.065-2.122.006-2.15-.15-.027-.14.804-.68 1.846-1.2 5-2.488 25.66-8.4 29.358-8.4 1.198 0 1.405.163 1.05.825-.41.765-.078 1.595 1.22 3.056 1.304 1.47 2.125 3.047 2.134 4.104.01 1.218-.433 1.02-1.963-.88-.943-1.17-1.92-2.078-2.644-2.455-1.087-.566-1.334-.59-4.73-.46-5.74.217-6.337.57-6.62 3.92-.212 2.508-.668 3.052-2.863 3.417-2.134.355-8.332.554-8.95.287zm7.766-1.214c.436-.306.563-.61.505-1.214-.107-1.095-.718-1.147-1.846-.156-1.073.942-1.13 1.2-.345 1.515.824.332 1.03.315 1.686-.144zm-28.246-3.218c-1.515-.838-3.968-3.982-3.968-5.086 0-.678.16-.783 2.75-1.8 4.615-1.81 18.407-6.307 22.21-7.24 5.212-1.277 8.358-1.556 15.35-1.36 8.825.25 11.02.706 11.493 2.392.573 2.046-.365 2.637-4.19 2.64-2.82.002-7.986.61-11.885 1.402-6.948 1.41-12.676 3.143-20.753 6.283-8.094 3.145-9.628 3.53-11.008 2.768zm89.152-12.287c-.638-.23-.888-.626-.888-1.76 0-1.745-.27-1.774-3.062-1.834l-3.707-.08 2.36-2.914c2.55-3.15 4.714-5.358 8.724-8.654 6.077-4.994 13.032-9.57 16.3-10.724 3.78-1.334 6.372-.482 11.19 3.678 2.61 2.255 3.12 3.063 2.583 4.1-.588 1.136-2.866 3.127-3.58 3.127-.39 0-1.31-.572-2.44-1.517-2.288-1.91-3.117-2.206-5.062-1.803-7.112 1.477-22.867 9.157-22.867 11.147 0 .625 2.055 0 11.323-3.45 6.228-2.32 8.76-2.756 10.785-1.86.99.437 1.303.746 1.727 1.704.53 1.202.937 4.373.655 5.11-.134.35-.358.275-1.45-.475-2.45-1.686-7.688-2.216-9.798-.992-.823.477-.977.723-2.48 3.96-.955 2.06-1.867 2.886-3.598 3.257-1.597.343-5.757.33-6.715-.018zm3.084-1.288c.69-.69.056-2.602-.706-2.132-.46.285-.265 2.44.22 2.44.1 0 .317-.14.486-.308zm26.575 97.2c5.04-3.278 14.41-12.968 18.727-19.364 6.283-9.31 10.697-27.585 10.224-42.33-.113-3.574-.955-11.8-1.31-12.8-.05-.14-.405.436-.79 1.28-3.182 6.992-5.807 11.41-9.582 16.13-6.27 7.837-9.438 15.41-12.318 29.44-1.432 6.974-3.222 13.895-5.1 19.71-1.843 5.715-2.614 8.55-2.413 8.875.212.343 1.077.025 2.562-.94zM122.27 290.38c.725-.278.432-1.03-1.048-2.688-2.57-2.882-4.923-6.913-6.89-11.812-.27-.668-.575-1.216-.68-1.216-.35-.003-.2 4.978.195 6.537 1.317 5.184 5.88 10.156 8.423 9.18zm35.76-38.195c3.153-1.943 9.708-6.052 14.565-9.13 28.39-17.99 44.982-27.607 64-37.092 16.526-8.24 29.377-13.68 47.872-20.255 24.92-8.86 56.176-15.98 78.592-17.9 7.332-.63 11.305-.722 17.86-.422 6.558.3 8.477.204 9.293-.47.495-.41.495-.435-.015-3.046-.283-1.448-.515-3.154-.515-3.79 0-2.96-1.036-4.63-3.763-6.062-2.1-1.103-4.794-1.84-8.91-2.432-2.527-.364-4.975-.442-13.823-.44-10.772.003-14.772.186-25.6 1.17-19 1.728-35.944 4.92-52.235 9.843-35.2 10.633-70.56 30.834-116.725 66.682-7.816 6.07-10.868 8.655-14.483 12.268-4.14 4.137-4.732 5.225-4.513 8.287.237 3.298 1.365 6.322 2.36 6.322.168 0 2.886-1.59 6.04-3.535zm41.686-31.652c-.36-.2-.805-.688-.988-1.084-.426-.923-.706-4.947-.344-4.947.34 0 1.823 1.818 2.865 3.513 1.053 1.716 1.014 2.73-.11 2.82-.423.032-1.064-.104-1.424-.303zm38.762-23.675c-1.106-.674-1.458-1.886-1.32-4.543.093-1.745.216-2.256.646-2.687.826-.825 1.085-.395 1.023 1.696l-.056 1.888 1.09 1.006c.806.747 1.087 1.2 1.087 1.762 0 1.403-1.017 1.764-2.47.878zm46.494-19.4c-.997-.686-1.256-1.15-1.265-2.265-.01-1.193.9-3.157 2.04-4.402.418-.457.81-.83.867-.83.06 0-.054.536-.252 1.192-.632 2.1-.347 3.78.914 5.384.286.363.52.817.52 1.01 0 .513-2.044.45-2.824-.087zm44.726-11.586c-.35-.418-.71-1.195-.797-1.728-.27-1.653.59-3.71 1.665-3.992.553-.144.56-.116.387 1.79-.165 1.81-.132 2 .496 2.95.793 1.198.68 1.74-.358 1.74-.52 0-.95-.235-1.392-.76zm39.708-4.166c-2.05-1.6-1.854-7.078.256-7.103.257-.003.29.43.155 1.933-.115 1.27-.064 2.403.15 3.293.38 1.583.13 2.415-.56 1.876zM235.7 232.538c3.942-1.166 12.236-3.677 18.43-5.58 36.62-11.245 50.99-14.75 74.682-18.22 8.72-1.277 16.414-2.523 18.63-3.018 1.296-.29 1.415-.376 1.485-1.083.05-.498-.265-1.44-.896-2.68-1.43-2.814-1.682-2.92-7.243-3.03-5.586-.112-15.453.337-22.016 1-32.055 3.243-67.32 15.676-87.68 30.913-1.988 1.49-3.967 3.393-3.967 3.818 0 .425-.178.47 8.576-2.12z" fill="#fff"/><path d="M249.922-.032C111.966-.032.13 111.796.13 249.752s111.836 249.792 249.792 249.792c137.956 0 249.784-111.836 249.784-249.792 0-137.956-111.828-249.784-249.784-249.784zm0 13.488c130.506 0 236.296 105.79 236.296 236.296 0 130.506-105.79 236.304-236.296 236.304-130.506 0-236.304-105.798-236.304-236.304S119.416 13.456 249.922 13.456z"/></svg>