<svg xmlns="http://www.w3.org/2000/svg" width="20" height="20" viewBox="0 0 96.124 96.123"><path fill="#fff" d="M72.09.02L59.623 0C45.62 0 36.57 9.285 36.57 23.656v10.907H24.037a1.96 1.96 0 0 0-1.96 1.96v15.804a1.96 1.96 0 0 0 1.96 1.96H36.57v39.876a1.96 1.96 0 0 0 1.96 1.96h16.352a1.96 1.96 0 0 0 1.96-1.96V54.287h14.654a1.96 1.96 0 0 0 1.96-1.96l.006-15.803a1.963 1.963 0 0 0-1.96-1.96H56.84v-9.247c0-4.444 1.06-6.7 6.85-6.7l8.396-.003a1.96 1.96 0 0 0 1.96-1.96V1.98C74.048.9 73.17.022 72.09.02z"/></svg>