<svg xmlns="http://www.w3.org/2000/svg" width="20" height="20" viewBox="0 0 96.124 96.123"><path fill="#fff" d="M72.09.02L59.623 0C45.62 0 36.57 9.285 36.57 23.656v10.907H24.037a1.96 1.96 0 0 0-1.96 1.96v15.804a1.96 1.96 0 0 0 1.96 1.96H36.57v39.876a1.96 1.96 0 0 0 1.96 1.96h16.352a1.96 1.96 0 0 0 1.96-1.96V54.287h14.654a1.96 1.96 0 0 0 1.96-1.96l.006-15.803a1.963 1.963 0 0 0-1.961-1.961H56.843v-9.246c0-4.444 1.06-6.7 6.848-6.7l8.397-.003a1.96 1.96 0 0 0 1.96-1.96V1.98c0-1.08-.877-1.958-1.958-1.96z"/></svg>