<svg xmlns="http://www.w3.org/2000/svg" viewBox="0 0 178.083 178.083" width="20" height="20"><path fill="#fff" d="M152.235 8.9a7.506 7.506 0 0 0-1.59-6.184A7.51 7.51 0 0 0 144.865 0H42.778c-9.407 0-17.06 7.653-17.06 17.062v153.52a7.498 7.498 0 0 0 7.498 7.5 7.5 7.5 0 0 0 5.53-2.43l51.48-56.162h34.786a7.502 7.502 0 0 0 7.37-6.1l9.905-52.128.004-.02L152.234 8.9zm-33.433 95.59H86.925a7.507 7.507 0 0 0-5.53 2.432l-40.68 44.38V17.062c0-1.117.945-2.062 2.06-2.062h93.032l-7.077 37.244H83.995c-4.142 0-7.5 3.357-7.5 7.5s3.358 7.5 7.5 7.5h41.884l-7.08 37.246z"/></svg>