<svg xmlns="http://www.w3.org/2000/svg" width="20" height="20" viewBox="0 0 96.828 96.827"><path fill="#fff" d="M62.617 0H39.525C29.235 0 22.112 2.256 15.7 7.552c-5.04 4.35-8.05 10.672-8.05 16.912 0 9.614 7.33 19.83 20.913 19.83 1.306 0 2.752-.133 4.028-.252l-.186.457c-.546 1.306-1.063 2.54-1.063 4.466 0 3.75 1.81 6.063 3.56 8.298l.22.283-.39.027c-5.61.384-16.05 1.1-23.677 5.787-9.007 5.356-9.707 13.146-9.707 15.405 0 8.988 8.376 18.06 27.09 18.06 21.76 0 33.146-12.005 33.146-23.863.003-8.77-5.14-13.1-10.6-17.698l-4.604-3.582c-1.423-1.18-3.195-2.646-3.195-5.364 0-2.673 1.773-4.437 3.337-5.993l.163-.165c4.973-3.917 10.61-8.358 10.61-17.964 0-9.658-6.036-14.65-8.938-17.048h7.663c.094 0 .188-.026.266-.077L62.886.92c.188-.12.276-.347.214-.56-.06-.214-.257-.36-.48-.36zM34.614 91.535c-13.264 0-22.176-6.195-22.176-15.416 0-6.023 3.645-10.398 10.824-13 5.75-1.934 13.17-2.03 13.244-2.03 1.257 0 1.89 0 2.893.126 9.28 6.606 13.74 10.074 13.74 16.68 0 8.413-7.1 13.64-18.528 13.64zm-.125-50.78c-11.134 0-15.754-14.632-15.754-22.467 0-3.984.906-7.042 2.77-9.35C23.53 6.406 26.993 4.77 30.33 4.77c10.22 0 15.874 13.74 15.874 23.235 0 1.498 0 6.055-3.148 9.22-2.117 2.113-5.56 3.532-8.568 3.532zm60.492 4.468H82.814V33.098c0-.276-.225-.5-.5-.5H77.08c-.276 0-.5.224-.5.5v12.125H64.473c-.276 0-.5.224-.5.5v5.304c0 .275.224.5.5.5H76.58V63.73c0 .275.224.5.5.5h5.234c.275 0 .5-.225.5-.5V51.525h12.168c.276 0 .5-.223.5-.5v-5.302c0-.277-.223-.5-.5-.5z"/></svg>