<svg xmlns="http://www.w3.org/2000/svg" width="20" height="20" viewBox="0 0 97.395 97.395"><path fill="#fff" d="M12.5 0h72.394c6.875 0 12.5 5.09 12.5 12.5v72.395c0 7.41-5.625 12.5-12.5 12.5H12.5c-6.876 0-12.5-5.09-12.5-12.5V12.5C0 5.09 5.624 0 12.5 0zm58.45 10.82a4.396 4.396 0 0 0-4.383 4.386V25.7a4.395 4.395 0 0 0 4.383 4.386h11.008a4.398 4.398 0 0 0 4.385-4.385V15.207a4.396 4.396 0 0 0-4.384-4.385H70.948zm15.44 30.368h-8.573a28.52 28.52 0 0 1 1.25 8.355c0 16.2-13.556 29.332-30.275 29.332-16.718 0-30.272-13.132-30.272-29.332 0-2.904.438-5.708 1.25-8.355h-8.945v41.14a3.884 3.884 0 0 0 3.872 3.873h67.822c2.13 0 3.872-1.74 3.872-3.87V41.187h-.003zm-37.6-11.655c-10.8 0-19.56 8.485-19.56 18.953S37.99 67.44 48.79 67.44c10.804 0 19.563-8.486 19.563-18.954s-8.757-18.953-19.56-18.953z"/></svg>