<svg xmlns="http://www.w3.org/2000/svg" width="20" height="20" viewBox="0 0 95.481 95.481"><g fill="#fff"><path d="M43.04 67.254c-7.4-.772-14.075-2.595-19.79-7.064-.708-.556-1.44-1.092-2.087-1.713-2.5-2.402-2.753-5.153-.774-7.988 1.69-2.428 4.533-3.077 7.487-1.684.572.27 1.117.607 1.64.97 10.648 7.316 25.277 7.518 35.966.328 1.06-.812 2.19-1.474 3.503-1.812 2.55-.655 4.93.282 6.3 2.514 1.563 2.55 1.543 5.037-.384 7.016-2.956 3.034-6.51 5.23-10.46 6.76-3.736 1.45-7.827 2.178-11.876 2.662.61.665.9.992 1.28 1.376 5.5 5.525 11.02 11.026 16.5 16.567 1.868 1.888 2.258 4.23 1.23 6.425-1.124 2.4-3.64 3.98-6.107 3.81-1.564-.108-2.783-.886-3.866-1.977-4.15-4.175-8.376-8.273-12.44-12.527-1.184-1.237-1.753-1.003-2.797.07-4.174 4.298-8.416 8.53-12.683 12.736-1.916 1.89-4.196 2.23-6.418 1.15-2.362-1.145-3.865-3.556-3.75-5.98.08-1.638.887-2.89 2.012-4.013C30.97 79.45 36.395 74 41.823 68.56c.36-.363.694-.747 1.217-1.306z"/><path d="M47.55 48.33c-13.205-.046-24.033-10.993-23.956-24.22C23.67 10.74 34.504-.036 47.84 0c13.362.036 24.087 10.967 24.02 24.478-.068 13.2-10.97 23.897-24.31 23.85zm12-24.187c-.022-6.567-5.252-11.795-11.806-11.8-6.61-.008-11.886 5.315-11.835 11.942.047 6.542 5.322 11.733 11.894 11.71 6.552-.024 11.768-5.286 11.746-11.852z"/></g></svg>