<svg xmlns="http://www.w3.org/2000/svg" width="20" height="20" viewBox="0 0 533.333 533.333"><path fill="#fff" d="M266.667 0C119.39 0 0 119.39 0 266.667c0 147.275 119.388 266.666 266.667 266.666 147.275 0 266.667-119.39 266.667-266.666S413.942 0 266.667 0zm25.856 356.31c-24.23-1.88-34.397-13.882-53.388-25.42-10.448 54.78-23.21 107.302-61.01 134.734-11.67-82.795 17.132-144.98 30.505-210.997-22.804-38.39 2.744-115.643 50.844-96.6 59.18 23.41-51.25 142.71 22.88 157.612 77.407 15.554 109.005-134.304 61.012-183.037-69.354-70.367-201.874-1.604-185.578 99.144 3.966 24.63 29.412 32.103 10.168 66.095-44.385-9.84-57.63-44.845-55.925-91.517 2.746-76.393 68.64-129.877 134.735-137.274C330.35 59.696 408.8 99.73 419.632 178.36c12.196 88.746-37.73 184.86-127.107 177.95z"/></svg>