<svg xmlns="http://www.w3.org/2000/svg" width="20" height="20" viewBox="0 0 90 90"><path fill="#fff" d="M70.94 65.832H66l.023-2.87a2.33 2.33 0 0 1 2.326-2.317h.313a2.332 2.332 0 0 1 2.332 2.318l-.057 2.87zm-18.527-6.148c-1.253 0-2.278.842-2.278 1.873V75.51c0 1.03 1.025 1.87 2.278 1.87 1.258 0 2.284-.84 2.284-1.87V61.557c0-1.032-1.026-1.873-2.284-1.873zM82.5 51.88v26.543C82.5 84.79 76.98 90 70.23 90H19.77C13.02 90 7.5 84.79 7.5 78.423V51.88c0-6.368 5.52-11.58 12.27-11.58h50.46c6.75 0 12.27 5.212 12.27 11.58zM23.137 81.304l-.004-27.96h6.255v-4.142l-16.674-.025v4.073l5.205.016v28.04h5.216zm18.75-23.796h-5.215v14.93c0 2.16.13 3.24-.008 3.62-.424 1.16-2.33 2.39-3.073.126-.124-.396-.013-1.59-.015-3.643l-.02-15.033h-5.187l.016 14.797c.004 2.268-.05 3.96.018 4.73.128 1.356.083 2.938 1.342 3.842 2.346 1.69 6.843-.253 7.968-2.67l-.01 3.084 4.188.005V57.51zM58.57 74.606l-.01-12.427c-.005-4.737-3.548-7.573-8.357-3.74l.02-9.24-5.208.01-.025 31.89 4.284-.064.39-1.986c5.473 5.022 8.914 1.58 8.906-4.443zm16.32-1.647l-3.91.02c0 .155-.007.334-.01.53v2.18c0 1.17-.964 2.12-2.136 2.12h-.766c-1.174 0-2.14-.95-2.14-2.12v-5.738h8.955v-3.37c0-2.463-.063-4.925-.267-6.333-.64-4.455-6.893-5.16-10.05-2.88a5.874 5.874 0 0 0-2.19 2.943c-.443 1.28-.664 3.03-.664 5.254v7.41c.002 12.318 14.964 10.577 13.18-.018zM54.834 32.73c.27.654.687 1.184 1.254 1.584.56.394 1.276.592 2.134.592.753 0 1.42-.203 2-.622.577-.417 1.064-1.04 1.462-1.87l-.1 2.045h5.814V9.74H62.82v19.24a1.907 1.907 0 0 1-3.81 0V9.74H54.23v16.674c0 2.124.04 3.54.102 4.258a7.2 7.2 0 0 0 .498 2.06zM37.217 18.77c0-2.373.198-4.226.59-5.562.397-1.33 1.108-2.4 2.138-3.208 1.027-.81 2.342-1.217 3.94-1.217 1.346 0 2.498.264 3.46.78.967.52 1.713 1.196 2.23 2.03a7.987 7.987 0 0 1 1.076 2.573c.197.89.293 2.235.293 4.048v6.252c0 2.293-.092 3.98-.27 5.05a8.03 8.03 0 0 1-1.147 3.005c-.58.926-1.33 1.617-2.237 2.058-.92.445-1.97.663-3.155.663-1.325 0-2.44-.182-3.36-.564-.924-.38-1.637-.953-2.145-1.714-.514-.76-.875-1.69-1.093-2.77-.22-1.082-.323-2.708-.323-4.875l.003-6.545zm4.553 9.82c0 1.4 1.042 2.543 2.31 2.543 1.27 0 2.31-1.143 2.31-2.543V15.43c0-1.398-1.04-2.54-2.31-2.54-1.268 0-2.31 1.142-2.31 2.54v13.16zm-16.088 6.645h5.484l.006-18.96L37.652.033h-5.998L28.21 12.097 24.714 0H18.78l6.893 16.284.01 18.95z"/></svg>