<?xml version="1.0" encoding="UTF-8" standalone="no"?>
<!-- Created with Inkscape (http://www.inkscape.org/) -->

<svg
   xmlns:dc="http://purl.org/dc/elements/1.1/"
   xmlns:cc="http://creativecommons.org/ns#"
   xmlns:rdf="http://www.w3.org/1999/02/22-rdf-syntax-ns#"
   xmlns:svg="http://www.w3.org/2000/svg"
   xmlns="http://www.w3.org/2000/svg"
   xmlns:sodipodi="http://sodipodi.sourceforge.net/DTD/sodipodi-0.dtd"
   xmlns:inkscape="http://www.inkscape.org/namespaces/inkscape"
   width="500"
   height="500"
   id="svg2"
   version="1.1"
   inkscape:version="0.48.0 r9654"
   sodipodi:docname="Новый документ 1">
  <defs
     id="defs4" />
  <sodipodi:namedview
     id="base"
     pagecolor="#ffffff"
     bordercolor="#666666"
     borderopacity="1.0"
     inkscape:pageopacity="0.0"
     inkscape:pageshadow="2"
     inkscape:zoom="0.35"
     inkscape:cx="663.45458"
     inkscape:cy="641.99189"
     inkscape:document-units="px"
     inkscape:current-layer="g2890"
     showgrid="false"
     inkscape:snap-object-midpoints="true"
     inkscape:snap-center="true"
     inkscape:snap-midpoints="true"
     showguides="true"
     inkscape:guide-bbox="true"
     inkscape:object-paths="true"
     inkscape:snap-intersection-paths="true"
     fit-margin-top="0"
     fit-margin-left="0"
     fit-margin-right="0"
     fit-margin-bottom="0"
     inkscape:window-width="1280"
     inkscape:window-height="904"
     inkscape:window-x="-4"
     inkscape:window-y="-4"
     inkscape:window-maximized="1" />
  <metadata
     id="metadata7">
    <rdf:RDF>
      <cc:Work
         rdf:about="">
        <dc:format>image/svg+xml</dc:format>
        <dc:type
           rdf:resource="http://purl.org/dc/dcmitype/StillImage" />
        <dc:title></dc:title>
      </cc:Work>
    </rdf:RDF>
  </metadata>
  <g
     inkscape:label="Layer 1"
     inkscape:groupmode="layer"
     id="layer1"
     transform="translate(600.40625,-1600.375)">
    <g
       id="g2890">
      <g
         id="g2904"
         transform="matrix(0.25621727,0,0,0.25621727,-446.5718,1562.2226)">
        <path
           sodipodi:type="arc"
           style="fill:#BC002D;fill-opacity:1;stroke:#ffff00;stroke-width:5.4000001;stroke-linecap:round;stroke-linejoin:round;stroke-miterlimit:4;stroke-opacity:1;stroke-dasharray:none;stroke-dashoffset:1.5"
           id="path2886"
           sodipodi:cx="440"
           sodipodi:cy="1158.0764"
           sodipodi:rx="965.71429"
           sodipodi:ry="965.71429"
           d="m 1405.7143,1158.0764 c 0,533.3493 -432.36502,965.7143 -965.7143,965.7143 -533.349278,0 -965.71429,-432.365 -965.71429,-965.7143 0,-533.34926 432.365012,-965.71428 965.71429,-965.71428 533.34928,0 965.7143,432.36502 965.7143,965.71428 z"
           transform="translate(-62.857143,-37.142857)" />
        <path
           sodipodi:nodetypes="ssssssssssssssssssssssssssssssscsssscssssss"
           inkscape:connector-curvature="0"
           id="path2888"
           d="m 479.78571,1889.8918 c -55.6635,-3.863 -111.85878,-19.5654 -179.5,-50.157 -86.05613,-38.92 -183.74143,-103.6456 -264.5,-175.2558 -22.74558,-20.1689 -62.5,-58.7475 -62.5,-60.6514 0,-1.0482 -1.79589,-21.3657 -3.99088,-45.1499 -7.18639,-77.8699 -11.68091,-107.1063 -18.57958,-120.8584 -8.58509,-17.1139 -29.91177,-37.2813 -47.92954,-45.3241 -12.2466,-5.4666 -34.21515,-29.3088 -59.0274,-64.0616 -15.17928,-21.2606 -25.08525,-37.766 -36.00984,-60 -19.27611,-39.2312 -27.27624,-63.515 -31.042,-94.2256 -2.11126,-17.2179 -3.02469,-68.6504 -1.53433,-86.3941 1.65674,-19.7245 3.7299,-25.6481 15.18252,-43.3803 3.19704,-4.95 7.07691,-11.7 8.62192,-15 2.62998,-5.6173 2.80365,-6.7972 2.7232,-18.5 -0.0473,-6.875 -1.06747,-20.82499 -2.26715,-30.99999 -14.6521,-124.27153 -2.37579,-220.88483 38.69995,-304.56474 10.31804,-21.01999 15.16277,-29.44687 28.70854,-49.93526 19.10889,-28.90279 38.88412,-52.97481 64.92387,-79.03059 78.75817,-78.80669 182.75561,-130.92595 340.03018,-170.40921 103.12604,-25.88944 185.26214,-31.36519 261.49054,-17.43271 30.1154,5.50427 60.7835,14.50529 91.4402,26.83744 66.6407,26.80737 112.7844,56.15047 152.0598,96.69584 27.092,27.96808 46.8721,56.41396 71.2518,102.46777 13.7886,26.04687 23.1032,38.2846 36.8994,48.47947 5.0332,3.7193 11.9305,9.60403 15.3273,13.07718 12.3615,12.63922 24.8984,34.48961 32.0243,55.81481 8.5591,25.61412 17.7699,67.87686 19.9417,91.5 2.6168,28.46426 3.1427,32.55738 5.5248,43 1.3801,6.05 4.3476,16.79971 6.5945,23.88825 11.5417,36.41207 12.3877,60.98079 3.3095,96.11175 -3.217,12.44927 -11.0046,31.90347 -23.6178,58.99999 l -13.0338,28 7.6581,35 c 14.4413,66.0015 18.9316,106.5963 19.0254,172 0.067,46.6732 -1.6977,64.5346 -9.4353,95.5 -6.4189,25.6878 -13.0622,41.9342 -36.3703,88.9452 -9.1202,18.3949 -16.8594,34.9229 -17.1983,36.729 -0.798,4.2539 2.2352,9.5079 12.1567,21.0572 9.8649,11.4835 11.1731,14.983 9.6192,25.7306 -3.2086,22.192 -17.2586,68.6704 -29.1983,96.5908 -47.8691,111.9388 -130.9094,200.1863 -228.9789,243.3376 -36.2116,15.9333 -77.2816,26.7693 -116,30.6055 -15.2383,1.5098 -47.4618,2.0059 -62.5,0.9623 z"
           style="fill:#000000" />
        <path
           style="fill:#ffffff"
           d="m 528.78571,1866.8644 c 27.6302,-2.223 53.5798,-7.935 88,-19.3704 33.2929,-11.0609 53.8437,-20.9004 79.5,-38.0638 83.7043,-55.9958 146.6283,-140.1416 181.1208,-242.2055 7.0197,-20.7713 9.8783,-33.1672 9.8681,-42.7911 -0.014,-13.2793 -4.0613,-19.7436 -21.4746,-34.2991 -4.9579,-4.1443 -9.6277,-8.0893 -10.3774,-8.7668 -1.1272,-1.0186 -0.057,-2.9567 6.1834,-11.1968 17.0234,-22.4788 31.2096,-47.188 44.0276,-76.686 22.0738,-50.7985 28.6376,-84.609 28.648,-147.5684 0.012,-71.0704 -10.0317,-137.8122 -29.9841,-199.253 l -6.0955,-18.7701 11.0782,-20.8607 c 12.8553,-24.20715 17.9211,-36.07617 21.9802,-51.49972 4.3789,-16.6388 5.3597,-25.65967 4.7237,-43.44545 -0.7889,-22.06328 -4.0779,-35.40558 -13.8215,-56.06809 -11.8625,-25.15584 -23.025,-36.78822 -38.8904,-40.52749 -8.4239,-1.98539 -26.5539,-1.99488 -41.6055,-0.0218 -9.9149,1.29973 -77.4836,13.23276 -78.0317,13.78085 -0.1008,0.1008 5.2231,8.95812 11.8308,19.68293 31.0928,50.46545 45.4494,88.75167 69.7464,185.99967 18.337,73.3936 27.3267,115.2216 31.2709,145.5 1.8176,13.9534 1.7938,89.771 -0.033,105.5 -3.6876,31.7483 -12.4117,59.898 -28.1998,90.9915 -36.9456,72.7612 -104.441,124.5347 -197.4645,151.4683 -64.4972,18.6742 -148.013,22.3553 -227.7304,10.0377 -44.0022,-6.799 -93.88929,-22.8851 -139.3014,-44.9176 -30.56593,-14.8296 -53.57363,-28.823 -78.9682,-48.0288 -34.28657,-25.9307 -71.54368,-62.8464 -104.37297,-103.4163 -56.20083,-69.4523 -110.075,-158.4132 -120.65118,-199.228 -4.99798,-19.2878 -5.62246,-30.7106 -2.06297,-37.7349 10.81291,-21.3384 122.45293,-114.64334 224.08702,-187.28435 116.01269,-82.91784 199.8323,-125.00267 315.5,-158.40882 57.0661,-16.48134 109.1749,-27.44466 156.5,-32.92648 42.6933,-4.9453 106.5717,-7.35717 149.5,-5.64469 43.4792,1.73447 53.3204,3.55022 79.6183,14.69001 8.5449,3.61965 15.7848,6.33271 16.0885,6.02902 1.7823,-1.78237 -11.06,-35.50823 -21.7531,-57.12658 -8.4833,-17.15092 -17.7742,-30.07239 -26.8065,-37.28145 -14.2857,-11.40214 -22.1356,-22.32352 -36.8139,-51.21855 -5.4482,-10.725 -12.8144,-24.13561 -16.3695,-29.80136 -25.7727,-41.074 -70.4395,-88.59035 -104.9638,-111.65994 -12.2421,-8.18034 -24.1114,-13.84796 -29.2196,-13.95243 -7.5179,-0.15374 -6.3486,2.25837 7.6372,15.755 11.024,10.63847 14.7711,15.65873 11.6875,15.65873 -1.4905,0 -15.0241,-10.05752 -25.6206,-19.04005 -44.8433,-38.01317 -99.5698,-60.90985 -168.2689,-70.40096 -24.971,-3.44987 -39.5551,-0.60152 -45.8117,8.94732 -1.4153,2.16011 -1.4014,2.69667 0.1552,5.97707 0.9406,1.98216 7.3308,9.54679 14.2004,16.81028 16.0761,16.99797 29.0513,31.48435 30.3152,33.84599 0.7399,1.38241 0.6524,1.86035 -0.3407,1.86035 -1.7215,0 -19.0715,-10.02809 -38.5672,-22.29146 -41.5494,-26.13586 -83.4236,-41.70854 -112.15213,-41.70854 -20.76958,0 -71.32255,13.42684 -73.67962,19.56926 -0.4269,1.11248 0.17186,2.33219 1.75886,3.58292 3.17845,2.50496 28.08003,14.89437 44.43631,22.10861 31.81188,14.03124 59.24038,32.43669 64.48568,43.27213 2.0125,4.15726 2.0865,4.79324 0.7169,6.16284 -2.056,2.05602 -5.4957,0.88857 -22.7328,-7.71568 -34.01082,-16.97719 -73.29857,-29.42946 -104.33427,-33.06879 -14.88132,-1.74503 -49.27139,-0.67198 -63.93947,1.99504 -38.17771,6.94167 -74.55046,20.96256 -115.88414,44.67076 -40.51177,23.23678 -59.36258,43.84684 -52.40686,57.29772 3.41955,6.61268 17.22882,16.21273 49.06474,34.10927 25.70585,14.45053 37.67614,22.2355 42.0542,27.35027 8.1426,9.5128 1.11723,9.25616 -20.95998,-0.76567 -30.34376,-13.7744 -51.88276,-20.22261 -78.56799,-23.52122 -10.6502,-1.31649 -34.30707,-1.32335 -43.52623,-0.0126 -23.31482,3.31478 -44.10817,13.0969 -56.37911,26.52326 -9.4766,10.36892 -12.5603,19.10711 -13.98657,39.63338 -1.04564,15.04844 -2.20259,17.64981 -10.18084,22.89133 -2.99941,1.97055 -8.82848,5.79555 -12.95348,8.5 -19.89943,13.04655 -41.97448,42.81917 -51.4697,69.41717 -8.73417,24.46615 -12.1564,56.20865 -11.21246,104 0.86841,43.96709 3.62899,66.68553 14.15622,116.5 9.17873,43.43339 10.79161,53.85259 10.37479,67.02109 -0.31767,10.036 -0.63665,11.6001 -3.56892,17.5 -1.77104,3.5634 -6.67634,10.7539 -10.90068,15.9789 -15.34044,18.9743 -25.07162,36.718 -21.38636,38.9956 1.73679,1.0734 3.71333,0.045 11.75797,-6.1171 14.15541,-10.8431 22.96718,-7.5043 48.78617,18.4852 31.33064,31.5375 52.63805,66.4853 66.2348,108.6363 10.36163,32.1219 15.32348,66.8401 13.76621,96.3224 -1.10771,20.9712 -2.86674,24.5598 -17.84941,36.4145 l -9.81136,7.7631 20.31136,0.29 c 29.13537,0.4161 37.98769,-1.566 43.37891,-9.7127 3.54117,-5.3511 4.9402,-10.5542 6.88942,-25.6227 0.92168,-7.125 1.88483,-13.5902 2.14034,-14.367 0.29358,-0.8926 16.18632,14.2108 43.18362,41.0386 42.64329,42.3757 54.96482,54.0678 75.71908,71.8513 75.44426,64.6449 152.83517,106.7256 245.5,133.4886 28.1601,8.1331 50.0136,12.0919 82.5,14.9449 51.0969,4.4875 100.6352,5.3581 126.5,2.2231 48.264,-5.85 100.2604,-22.2499 161.9486,-51.0795 28.1989,-13.1786 52.7805,-27.0808 78.2156,-44.2351 14.9378,-10.0746 15.0554,-9.8705 2.3358,4.0541 -37.4504,40.9985 -109.2827,84.9735 -176.551,108.0828 -35.6427,12.2447 -80.8628,21.3623 -127.449,25.6972 -17.0213,1.5839 -69.3428,1.5833 -86.5,-9e-4 -54.62394,-5.0437 -100.27474,-15.7166 -149,-34.8352 -24.65605,-9.6745 -53.33511,-24.2255 -83.22164,-42.2245 -14.69691,-8.8512 -27.13082,-16.093 -27.63093,-16.093 -1.25109,0 -21.56217,14.8065 -27.42464,19.9922 -6.75803,5.9778 -13.54488,15.9199 -16.32529,23.915 -3.49841,10.0597 -4.89146,25.14 -3.48055,37.6786 3.58013,31.8164 19.04976,58.0779 57.02265,96.8024 30.79417,31.4037 64.50106,58.9726 108.92458,89.0895 40.06438,27.1615 63.99702,39.8853 92.13582,48.9838 49.2009,15.9088 99.2154,21.6759 151.5,17.4693 z m -9.028,-12.9727 c -10.3676,-1.3558 -18.6172,-3.8958 -29.0384,-8.9409 -29.5462,-14.3039 -49.0452,-38.2227 -57.5728,-70.623 -2.0308,-7.7156 -2.339,-11.2132 -2.3258,-26.3942 0.013,-14.6765 0.3695,-18.9049 2.2112,-26.2074 9.1817,-36.4056 31.5985,-62.9161 64.5657,-76.3567 24.516,-9.9951 50.396,-10.7691 74.6191,-2.2318 10.5636,3.7231 14.3894,5.6301 24.569,12.2462 33.9172,22.0441 54.0889,58.599 52.1743,94.5497 -2.0187,37.9066 -27.7983,78.1774 -60.4925,94.4969 -16.6652,8.3185 -46.2725,12.3954 -68.7098,9.4612 z m 42.6347,-8.9049 c 18.8911,-4.178 32.5256,-11.6315 44.4963,-24.3245 8.2436,-8.7411 13.4964,-17.3947 17.135,-28.2287 2.4213,-7.2097 2.6878,-9.4325 2.6973,-22.5 0.01,-13.8194 -0.1349,-14.8805 -3.0905,-22.6076 -13.7278,-35.8897 -50.2867,-56.8658 -88.9238,-51.0209 -50.7073,7.6708 -79.1254,50.7121 -63.7992,96.6285 12.7446,38.1825 52.3389,60.7109 91.4849,52.0532 z m -17.1067,-319.0596 c 32.1908,-1.9284 61.7907,-6.6351 97.5,-15.5035 21.5308,-5.3472 67.9889,-19.4919 69.473,-21.1519 1.3673,-1.5294 29.9032,-87.5528 34.5546,-104.167 10.1039,-36.0906 18.6444,-74.7438 25.9053,-117.2443 12.637,-73.9688 13.0764,-86.0293 6.6274,-181.9299 -6.4054,-95.25275 -8.9849,-111.62807 -18.3919,-116.75778 -3.906,-2.12991 -13.542,-2.05834 -36.3369,0.26989 -87.5797,8.94521 -201.0893,35.68009 -378.3315,89.10819 -71.99339,21.7017 -82.57521,25.7603 -92.01556,35.2917 -6.94755,7.0145 -14.92603,22.6974 -18.68371,36.7257 -6.46758,24.1449 -1.84196,54.0735 17.13482,110.8653 13.15428,39.3668 31.16262,84.0389 54.0185,134 15.85181,34.6508 46.2033,94.7264 53.30087,105.5 16.52878,25.0895 27.71548,30.2371 82.34368,37.8909 28.8292,4.0391 47.8097,6.1512 63.4014,7.0548 19.3301,1.1204 21.553,1.1231 39.5,0.048 z m 0.1766,-77.9648 c -1.8278,-1.1487 -3.142,-2.6325 -2.9205,-3.2972 0.6649,-1.9947 10.7788,-4.6053 18.0944,-4.6705 3.7677,-0.034 12.485,0.8909 19.3717,2.0544 12.1747,2.0569 12.7047,2.0668 19.1495,0.3582 11.3893,-3.0193 26.72,-9.5022 39.4155,-16.6674 6.7171,-3.7911 17.1169,-9.3484 23.1108,-12.3496 17.4553,-8.74 19.0066,-7.245 5.8138,5.6027 -7.347,7.1547 -10.5062,9.4063 -19.2506,13.7197 -11.8537,5.8471 -24.4387,10.2422 -39.8765,13.9262 -9.4178,2.2474 -13.2856,2.5747 -35.0847,2.969 -23.5238,0.4255 -24.6324,0.3599 -27.8234,-1.6455 z m -51.7969,-35.954 c -3.7845,-0.6198 -9.3797,-3.393 -9.3797,-4.6489 0,-0.2904 1.6655,-1.2238 3.7011,-2.0744 2.7091,-1.1319 9.758,-1.7735 26.3,-2.3939 30.4831,-1.1432 39.0773,-3.0818 55.4989,-12.519 18.2309,-10.4769 21.9987,-11.7865 26.8157,-9.3204 3.4948,1.7892 9.6843,8.1375 9.6843,9.9329 0,0.9455 -1.5948,2.3363 -3.75,3.2703 -10.5398,4.5675 -63.8363,15.2453 -88.106,17.6518 -11.2473,1.1152 -14.4793,1.131 -20.7643,0.1016 z m 130.6297,-22.3248 c 0.021,-2.8159 6.2808,-11.9113 9.7601,-14.1816 3.6978,-2.4129 16.2955,-5.5684 22.2305,-5.5684 5.5175,0 18.3379,-3.0913 25.5,-6.1486 3.85,-1.6435 7.675,-3.2587 8.5,-3.5894 1.0181,-0.408 0.8587,0.1283 -0.4963,1.6694 -3.1686,3.6037 -18.4755,13.4373 -24.5037,15.7418 -5.6741,2.1692 -39.5696,13.3268 -40.4852,13.3268 -0.2832,0 -0.5106,-0.5625 -0.5054,-1.25 z m -92.1198,-81.2198 c -6.5723,-2.419 -11.7856,-6.4096 -14.0825,-10.7798 -1.8834,-3.5833 -2.2931,-6.2123 -2.6104,-16.7504 -0.2463,-8.181 -0.037,-12.1545 0.6048,-11.5 0.5396,0.55 2.3326,4.2536 3.9844,8.2301 2.6118,6.2877 7.9088,14.8712 16.7503,27.1427 3.6482,5.0637 2.2227,6.1857 -4.6466,3.6574 z m 61.1104,-12.195 c -4.675,-0.7672 -13.336,-1.494 -19.2467,-1.615 -5.9107,-0.1211 -10.7482,-0.5782 -10.75,-1.0157 -0.01,-2.0626 5.3527,-5.7521 10.5567,-7.265 6.4392,-1.8719 14.0857,-1.45 20.2272,1.116 4.1206,1.7218 6.5516,3.714 9.3888,7.6945 2.325,3.2618 2.7874,3.2125 -10.176,1.0852 z m 33,-2.8849 c 0,-1.8761 4.4366,-8.4246 12.5,-18.4503 10.2053,-12.6887 12.1623,-15.9403 13.0274,-21.645 1.3208,-8.7085 -6.277,-28.0384 -16.3846,-41.6846 -6.0252,-8.1347 -6.8885,-10.3533 -4.8299,-12.4119 1.358,-1.358 2.0008,-1.2851 6.0807,0.69 6.4326,3.114 13.0109,10.9108 18.1257,21.4831 5.8333,12.0576 9.5385,25.0535 10.2111,35.8158 0.5189,8.3018 0.3891,9.0675 -2.5469,15.0314 -3.4918,7.0929 -10.9408,16.379 -9.2088,11.4799 2.8399,-8.0327 -5.1106,-7.5547 -12.9747,0.7801 -6.0102,6.3699 -14,11.4557 -14,8.9115 z m 0.469,-128.0539 c -6.4617,-7.0545 -11.5309,-19.1676 -15.4409,-36.8964 -2.0917,-9.4845 -2.6898,-21.5 -1.0703,-21.5 1.5029,0 5.8958,8.1291 12.0994,22.3903 7.2441,16.6529 10.9428,28.3686 10.9428,34.6613 0,6.1621 -1.7824,6.5291 -6.531,1.3448 z m -258.969,-8.2489 c -1.50935,-0.6522 -2,-1.8189 -2,-4.7558 l 0,-3.8917 -6,0.086 c -3.3,0.048 -9.69761,0.2726 -14.21692,0.5 -5.01902,0.2526 -8.28882,0.024 -8.40168,-0.5864 -0.10162,-0.55 3.14599,-2.6578 7.21692,-4.684 19.53473,-9.7225 100.23478,-32.8156 114.67728,-32.8156 4.6791,0 5.4893,0.6366 4.1042,3.2246 -1.5991,2.988 -0.3056,6.2292 4.7638,11.9371 5.0944,5.736 8.3008,11.9027 8.3344,16.0293 0.039,4.7587 -1.6898,3.9846 -7.6646,-3.4319 -3.6848,-4.5739 -7.5062,-8.1227 -10.3307,-9.5936 -4.2481,-2.2124 -5.2155,-2.3068 -18.4827,-1.8032 -22.4213,0.8509 -24.7494,2.2299 -25.8554,15.3141 -0.8285,9.8008 -2.6081,11.925 -11.1858,13.3515 -8.3361,1.3863 -32.54695,2.1617 -34.9588,1.1196 z m 30.3337,-4.7436 c 1.7061,-1.195 2.2018,-2.3864 1.9725,-4.7418 -0.4166,-4.28 -2.8018,-4.4829 -7.2092,-0.6131 -4.1911,3.6798 -4.4198,4.6847 -1.347,5.9198 3.2198,1.2942 4.0285,1.2248 6.5837,-0.5649 z m -110.3337,-12.5709 c -5.91745,-3.2728 -15.5,-15.5553 -15.5,-19.8672 0,-2.6493 0.6295,-3.0612 10.75,-7.0333 18.0227,-7.0736 71.8976,-24.6344 86.75,-28.2766 20.3627,-4.9935 32.6524,-6.0824 59.9626,-5.3128 34.4761,0.9715 43.05,2.7551 44.8959,9.3395 2.2402,7.9913 -1.4269,10.302 -16.3646,10.3118 -11.0168,0.01 -31.1962,2.3878 -46.43,5.4772 -27.1395,5.504 -49.51216,12.2775 -81.0639,24.5428 -31.61659,12.2905 -37.61163,13.7988 -43,10.8186 z m 348.25,-47.9953 c -2.4885,-0.9089 -3.46429,-2.4517 -3.46429,-6.8801 0,-6.8169 -1.05835,-6.9287 -11.96317,-7.1636 l -14.47758,-0.3119 9.21894,-11.3852 c 9.96063,-12.3012 18.4138,-20.9291 34.0756,-33.8024 23.737,-19.5107 50.9064,-37.38562 63.6763,-41.89298 14.7625,-5.21071 24.8887,-1.88149 43.7021,14.36808 10.1993,8.8094 12.1883,11.9641 10.0951,16.0119 -2.297,4.4419 -11.1944,12.2185 -13.9795,12.2185 -1.5289,0 -5.1206,-2.2294 -9.5393,-5.9213 -8.9358,-7.4658 -12.174,-8.6191 -19.7722,-7.0417 -27.7794,5.7669 -89.322,35.767 -89.322,43.5416 0,2.4419 8.021,0 44.2241,-13.4812 24.3288,-9.0573 34.2221,-10.763 42.1323,-7.2639 3.865,1.7096 5.0884,2.9177 6.7434,6.6593 2.0746,4.6899 3.6626,17.078 2.5582,19.956 -0.5228,1.3625 -1.3973,1.0758 -5.6575,-1.8547 -9.5746,-6.5861 -30.038,-8.6576 -38.2799,-3.875 -3.2118,1.8637 -3.8133,2.8249 -9.6813,15.4692 -3.7354,8.0491 -7.29739,11.2724 -14.0593,12.7226 -6.23999,1.3382 -22.4897,1.2929 -26.23,-0.073 z m 12.05,-5.0377 c 2.6912,-2.6912 0.2175,-10.1649 -2.7562,-8.3271 -1.7997,1.1123 -1.0373,9.5271 0.8632,9.5271 0.3811,0 1.233,-0.54 1.893,-1.2 z m 103.8099,379.6891 c 19.6884,-12.8052 56.2966,-50.6577 73.1566,-75.643 24.5413,-36.3688 41.7829,-107.7507 39.9376,-165.3461 -0.4474,-13.964 -3.7376,-46.0971 -5.1196,-50 -0.1948,-0.55 -1.5834,1.7 -3.0859,5 -12.4327,27.3075 -22.6868,44.5659 -37.4313,63 -24.489,30.6169 -36.8689,60.2049 -48.1172,115 -5.5933,27.2475 -12.5865,54.2795 -19.9198,77 -7.2042,22.3203 -10.2156,33.3911 -9.4291,34.6638 0.8276,1.339 4.2085,0.098 10.0087,-3.6747 z m -875.19169,-183.0961 c 2.831,-1.0863 1.68598,-4.0239 -4.09288,-10.5004 -10.04411,-11.2566 -19.23112,-27.0033 -26.91858,-46.1389 -1.04871,-2.6104 -2.24425,-4.7479 -2.65675,-4.75 -1.36585,-0.01 -0.78307,19.446 0.76503,25.5362 5.14646,20.246 22.96816,39.6655 32.90318,35.8531 z M 16.38999,1134.1305 c 12.31764,-7.5917 37.92072,-23.6415 56.89572,-35.6663 110.89604,-70.2767 175.71083,-107.84053 250,-144.88893 64.5537,-32.19325 114.7549,-53.43395 187,-79.12176 97.3472,-34.61324 219.4357,-62.42039 307,-69.92302 28.6451,-2.45435 44.1641,-2.8205 69.7688,-1.64611 25.6164,1.17493 33.1134,0.79548 36.2993,-1.83727 1.9361,-1.59996 1.9356,-1.69982 -0.058,-11.89896 -1.1057,-5.657 -2.0103,-12.32023 -2.0103,-14.80718 0,-11.56298 -4.0476,-18.08343 -14.6983,-23.67818 -8.1997,-4.30725 -18.7286,-7.18053 -34.8017,-9.49722 -9.8748,-1.42331 -19.4381,-1.7277 -54,-1.71881 -42.0784,0.0108 -57.7035,0.72509 -100,4.57127 -74.22,6.74911 -140.4067,19.22005 -204.045,38.44629 -137.4958,41.53986 -275.61874,120.44816 -455.955,260.48268 -30.53311,23.7096 -42.45503,33.8075 -56.5749,47.9191 -16.16988,16.1604 -18.48386,20.4099 -17.62826,32.3732 0.92117,12.8801 5.32857,24.6943 9.21242,24.6943 0.65961,0 11.27737,-6.2114 23.59502,-13.8031 z M 179.22745,1010.487 c -1.40705,-0.779 -3.14446,-2.6847 -3.86092,-4.2349 -1.66435,-3.6011 -2.75639,-19.31849 -1.34224,-19.31849 1.32836,0 7.11866,7.10161 11.1889,13.72279 4.12001,6.7022 3.96605,10.6681 -0.42748,11.012 -1.65,0.1292 -4.15122,-0.4025 -5.55826,-1.1814 z M 330.6388,918.00727 c -4.31979,-2.63406 -5.69342,-7.36792 -5.14881,-17.74409 0.35776,-6.81626 0.83741,-8.81571 2.51797,-10.49626 3.22478,-3.22479 4.23996,-1.54291 3.99711,6.62214 l -0.21936,7.3753 4.25,3.93101 c 3.15344,2.91676 4.25,4.69309 4.25,6.88463 0,5.47665 -3.97182,6.88773 -9.64691,3.42727 z M 512.25821,842.2295 c -3.8933,-2.68337 -4.9066,-4.49823 -4.9407,-8.84955 -0.037,-4.6598 3.5187,-12.33367 7.967,-17.19634 1.6351,-1.7875 3.1603,-3.25 3.3892,-3.25 0.229,0 -0.2147,2.09652 -0.9859,4.65893 -2.4706,8.20939 -1.3569,14.7692 3.5713,21.03438 1.1146,1.41702 2.0266,3.19072 2.0266,3.94155 0,2.00621 -7.9808,1.76089 -11.0275,-0.33897 z m 174.7102,-45.26119 c -1.3724,-1.63091 -2.7733,-4.66841 -3.1133,-6.75 -1.0543,-6.45604 2.2955,-14.49308 6.4988,-15.59228 2.1618,-0.56534 2.186,-0.45356 1.5117,6.98772 -0.6411,7.07473 -0.516,7.81803 1.9403,11.52982 3.0947,4.67632 2.6589,6.79004 -1.3999,6.79004 -2.0342,0 -3.7128,-0.91538 -5.4376,-2.9653 z m 155.1102,-16.27478 c -8.0138,-6.24594 -7.2434,-27.6469 0.9988,-27.74461 1.0028,-0.0119 1.1383,1.67704 0.6061,7.5506 -0.4501,4.9667 -0.2491,9.38547 0.585,12.86238 1.4847,6.1889 0.5139,9.43899 -2.1899,7.33163 z M 319.78571,1057.382 c 15.4,-4.555 47.8,-14.3623 72,-21.7941 143.0462,-43.92912 199.175,-57.6236 291.7234,-71.17564 34.0607,-4.98757 64.1156,-9.85546 72.7766,-11.78736 5.0572,-1.12804 5.5238,-1.46855 5.7962,-4.22928 0.1922,-1.94835 -1.0365,-5.62538 -3.5,-10.47342 -5.5846,-10.9905 -6.5753,-11.40489 -28.2962,-11.83561 -21.8221,-0.43273 -60.3654,1.32139 -86,3.91389 -125.2179,12.66363 -262.9711,61.22927 -342.5,120.75032 -7.77102,5.816 -15.5,13.2529 -15.5,14.9143 0,1.6592 -0.69562,1.8312 33.5,-8.2831 z"
           id="path2882"
           inkscape:connector-curvature="0"
           sodipodi:nodetypes="sssssscsssscsssssssssssssssssssssssscssssssssssccscsssssssssssssssssssssssssssssssssscssscsssssssssssssssssssssssccssssssssssssssscscssscsssssssssccsccscssssssscscsssscsccssscssscscscscsscccccssscssssssssssssssscscccccscscscssscscssssssssccssscsscsssssscssccccssssccscsscssccssscccsscsccssssssssssssssssscccsssccsssscssssccsccssccsscscsccsssssscssssss" />
        <path
           id="path2899"
           d="m 375.34375,148.90625 c -538.88905,0 -975.75,436.8297 -975.75,975.71875 0,538.8891 436.86095,975.75 975.75,975.75 538.88905,0 975.71875,-436.8609 975.71875,-975.75 0,-538.88905 -436.8297,-975.71875 -975.71875,-975.71875 z m 0,52.6875 c 509.78974,0 923.03125,413.24151 923.03125,923.03125 0,509.7897 -413.24151,923.0625 -923.03125,923.0625 -509.78974,0 -923.0625,-413.2728 -923.0625,-923.0625 0,-509.78974 413.27276,-923.03125 923.0625,-923.03125 z"
           style="fill:#000000;stroke:none"
           inkscape:connector-curvature="0" />
      </g>
    </g>
  </g>
</svg>
