<svg xmlns="http://www.w3.org/2000/svg" viewBox="0 0 178.083 178.083" width="20" height="20"><path fill="#fff" d="M152.235 8.9c.417-2.195-.166-4.462-1.59-6.184C149.218.996 147.1 0 144.866 0H42.777c-9.407 0-17.06 7.653-17.06 17.062v153.52c0 3.094 1.898 5.87 4.78 6.99.885.345 1.806.51 2.718.51 2.063 0 4.08-.85 5.53-2.43l51.48-56.162h34.786c3.603 0 6.696-2.56 7.37-6.1l9.904-52.128.004-.02L152.235 8.9zm-33.433 95.59H86.925c-2.103 0-4.108.883-5.53 2.432l-40.68 44.38V17.062c0-1.117.945-2.062 2.06-2.062h93.032l-7.077 37.244H83.995c-4.142 0-7.5 3.357-7.5 7.5s3.358 7.5 7.5 7.5h41.884L118.8 104.49z"/></svg>