<svg height="20" viewBox="0 0 100 100" width="20" xmlns="http://www.w3.org/2000/svg"><path fill="#fff" d="M83.84 93.03c-.103 0-.206-.022-.304-.063L53.12 80.264c-.247-.103-.423-.32-.474-.582-.05-.262.035-.53.227-.715 3.496-3.396 5.42-7.947 5.42-12.816 0-2.06-.35-4.087-1.04-6.02-.03-.085-.046-.17-.047-.255L34.998 30.068c-4.462 3.86-8.684 9.63-8.207 15.252.038.436-.285.82-.722.854-.424.034-.816-.284-.854-.72-.568-6.713 4.746-13.465 9.908-17.543 6.22-4.913 12.965-7.015 17.604-5.49.414.137.642.583.504 1-.135.414-.578.64-.998.5-4.05-1.33-10.325.686-16.013 5.14L58.9 59.5c5.855 3.592 13.716 3.408 19.412-.497.224-.155.51-.183.762-.073.25.108.425.336.47.604l5.077 32.584c.045.283-.065.566-.29.744-.142.11-.314.167-.49.167M54.8 79.25l28.043 11.713-4.678-29.99c-5.653 3.37-13.01 3.582-18.837.582.363 1.498.548 3.04.548 4.596 0 4.905-1.795 9.51-5.077 13.1M19.95 37.6c-.407 0-.753-.31-.788-.723-.568-6.713 4.744-13.46 9.908-17.54 6.22-4.913 12.965-7.017 17.605-5.493.414.138.64.584.504.998-.138.416-.58.646-1 .506-4.083-1.34-10.41.71-16.13 5.23-4.84 3.823-9.828 10.078-9.313 16.163.037.438-.285.82-.722.855-.02.006-.043.006-.066.006m53.478 50.29c1.15-3.956 4.432-7.003 8.518-7.814l1.896 12.164-10.414-4.35zM37.934 8.564c-10.313 0-26.333 14.583-20.55 24.834l34.084 45.32 32.372 13.52-5.522-35.42-34.086-45.13c-1.432-2.185-3.68-3.124-6.298-3.124m0-3.163c3.802 0 6.95 1.582 8.88 4.46l34.028 45.05c.312.416.52.904.602 1.42l5.522 35.42c.177 1.133-.272 2.27-1.172 2.977-.567.445-1.256.674-1.953.674-.41 0-.824-.08-1.22-.242L50.25 81.635c-.52-.216-.972-.566-1.31-1.018L14.854 35.3c-.083-.114-.16-.228-.227-.35-2.472-4.38-2.12-9.728.99-15.054C20.287 11.904 30.297 5.4 37.934 5.4"/></svg>