<?xml version="1.0" encoding="iso-8859-1"?>
<!-- Generator: Adobe Illustrator 16.0.0, SVG Export Plug-In . SVG Version: 6.00 Build 0)  -->
<!DOCTYPE svg PUBLIC "-//W3C//DTD SVG 1.1//EN" "http://www.w3.org/Graphics/SVG/1.1/DTD/svg11.dtd">
<svg version="1.1" id="Capa_1" xmlns="http://www.w3.org/2000/svg" xmlns:xlink="http://www.w3.org/1999/xlink" x="0px" y="0px"
	 width="20px" height="20px" viewBox="0 0 533.333 533.333" style="enable-background:new 0 0 533.333 533.333;"
	 xml:space="preserve">
<g>
	<path fill="#ffffff" d="M266.667,0C119.391,0,0,119.391,0,266.667c0,147.275,119.388,266.666,266.667,266.666
		c147.275,0,266.667-119.391,266.667-266.666C533.333,119.391,413.942,0,266.667,0z M292.523,356.311
		c-24.229-1.882-34.397-13.883-53.388-25.421c-10.448,54.781-23.21,107.302-61.01,134.734
		c-11.669-82.795,17.132-144.981,30.505-210.997c-22.804-38.389,2.744-115.643,50.844-96.601
		c59.18,23.41-51.25,142.712,22.881,157.613c77.406,15.556,109.004-134.302,61.011-183.035
		c-69.354-70.367-201.874-1.604-185.578,99.144c3.966,24.631,29.412,32.103,10.168,66.095c-44.385-9.839-57.63-44.845-55.925-91.517
		c2.744-76.393,68.638-129.877,134.733-137.274c83.584-9.356,162.035,30.681,172.867,109.311
		C431.826,267.107,381.899,363.223,292.523,356.311z"/>
</g>
<g>
</g>
<g>
</g>
<g>
</g>
<g>
</g>
<g>
</g>
<g>
</g>
<g>
</g>
<g>
</g>
<g>
</g>
<g>
</g>
<g>
</g>
<g>
</g>
<g>
</g>
<g>
</g>
<g>
</g>
</svg>
