<svg xmlns="http://www.w3.org/2000/svg" width="20" height="20" viewBox="0 0 532.337 532.337"><path fill="#fff" d="M471.998 241.286c7.57-9.786 13.58-17.638 18.018-23.562 31.965-42.498 45.82-69.646 41.574-81.482l-1.666-2.772c-1.107-1.665-3.977-3.194-8.592-4.578-4.62-1.383-10.533-1.604-17.736-.69l-79.822.562c-1.848-.184-3.697-.14-5.545.128-1.85.28-3.048.563-3.606.832-.557.282-1.016.508-1.383.692l-1.106.832c-.924.55-1.94 1.524-3.047 2.914-1.11 1.39-2.04 3-2.773 4.853-8.684 22.356-18.568 43.146-29.656 62.363-6.838 11.457-13.123 21.396-18.844 29.792-5.73 8.415-10.533 14.603-14.414 18.568-3.88 3.972-7.393 7.166-10.53 9.56-3.147 2.41-5.546 3.42-7.204 3.054-1.666-.367-3.238-.734-4.713-1.114-2.588-1.658-4.67-3.917-6.236-6.787-1.572-2.856-2.63-6.462-3.19-10.807-.55-4.34-.88-8.084-.966-11.23-.097-3.14-.048-7.57.142-13.305.184-5.73.275-9.602.275-11.64 0-7.014.14-14.64.418-22.864.275-8.22.508-14.737.69-19.542.185-4.798.276-9.884.276-15.245 0-5.35-.323-9.56-.974-12.613-.648-3.042-1.62-5.998-2.906-8.868-1.297-2.858-3.19-5.08-5.686-6.646-2.496-1.573-5.588-2.815-9.283-3.746-9.798-2.222-22.27-3.41-37.417-3.604-34.37-.355-56.45 1.86-66.243 6.658-3.88 2.038-7.393 4.804-10.532 8.317-3.33 4.07-3.788 6.29-1.383 6.646 11.09 1.666 18.936 5.644 23.556 11.923l1.666 3.323c1.29 2.41 2.583 6.66 3.88 12.754 1.292 6.096 2.124 12.84 2.497 20.233.924 13.488.924 25.03 0 34.646-.924 9.613-1.8 17.092-2.63 22.44-.834 5.362-2.082 9.7-3.74 13.024-1.666 3.335-2.773 5.367-3.33 6.107-.557.735-1.016 1.2-1.383 1.385-2.405.918-4.896 1.383-7.484 1.383-2.59 0-5.73-1.298-9.425-3.887-3.696-2.575-7.533-6.137-11.5-10.666-3.977-4.522-8.45-10.856-13.445-18.99-4.988-8.12-10.166-17.736-15.52-28.82l-4.432-8.04c-2.772-5.166-6.56-12.7-11.365-22.584s-9.058-19.443-12.748-28.69c-1.48-3.874-3.697-6.83-6.652-8.868l-1.383-.832c-.924-.735-2.405-1.524-4.437-2.35-2.038-.833-4.155-1.433-6.377-1.806l-75.942.55c-7.76 0-13.023 1.764-15.795 5.276l-1.108 1.66c-.56.93-.835 2.41-.835 4.436 0 2.038.557 4.53 1.665 7.48 11.09 26.058 23.146 51.187 36.17 75.385 13.03 24.212 24.345 43.71 33.953 58.49 9.608 14.792 19.4 28.733 29.382 41.854 9.982 13.12 16.585 21.523 19.816 25.214 3.23 3.703 5.77 6.476 7.62 8.317l6.928 6.658c4.43 4.432 10.95 9.743 19.542 15.937 8.592 6.193 18.103 12.29 28.55 18.287 10.435 6.01 22.59 10.9 36.444 14.694 13.856 3.795 27.344 5.318 40.465 4.572h31.874c6.468-.55 11.362-2.576 14.687-6.096l1.107-1.383c.734-1.102 1.432-2.815 2.08-5.123.643-2.307.975-4.853.975-7.62-.192-7.942.415-15.115 1.798-21.48 1.383-6.377 2.955-11.175 4.713-14.418 1.757-3.226 3.74-5.955 5.96-8.177 2.217-2.222 3.783-3.55 4.713-4.015.924-.453 1.666-.777 2.217-.973 4.43-1.476 9.65-.043 15.66 4.296 6.004 4.352 11.64 9.7 16.91 16.077 5.262 6.377 11.59 13.53 18.984 21.48 7.387 7.944 13.855 13.856 19.4 17.736l5.545 3.336c3.694 2.21 8.493 4.24 14.41 6.096 5.913 1.842 11.09 2.307 15.52 1.383l70.956-1.113c7.02 0 12.473-1.15 16.354-3.464 3.88-2.295 6.188-4.853 6.928-7.62.734-2.77.783-5.898.14-9.418-.647-3.507-1.296-5.955-1.938-7.338-.648-1.383-1.25-2.546-1.807-3.464-9.24-16.628-26.885-37.05-52.938-61.255l-.557-.55-.275-.282-.275-.27h-.278c-11.83-11.273-19.31-18.85-22.45-22.736-5.726-7.38-7.024-14.865-3.878-22.44 2.203-5.746 10.514-17.85 24.926-36.334z"/></svg>